<?xml version="1.0" encoding="UTF-8" standalone="no"?>
<svg
   xmlns:dc="http://purl.org/dc/elements/1.1/"
   xmlns:cc="http://creativecommons.org/ns#"
   xmlns:rdf="http://www.w3.org/1999/02/22-rdf-syntax-ns#"
   xmlns:svg="http://www.w3.org/2000/svg"
   xmlns="http://www.w3.org/2000/svg"
   xmlns:sodipodi="http://sodipodi.sourceforge.net/DTD/sodipodi-0.dtd"
   xmlns:inkscape="http://www.inkscape.org/namespaces/inkscape"
   width="210mm"
   height="297mm"
   viewBox="0 0 210 297"
   version="1.1"
   id="svg8"
   inkscape:version="1.0.1 (3bc2e813f5, 2020-09-07)"
   sodipodi:docname="favicon.svg">
  <defs
     id="defs2" />
  <sodipodi:namedview
     id="base"
     pagecolor="#ffffff"
     bordercolor="#666666"
     borderopacity="1.0"
     inkscape:pageopacity="0.0"
     inkscape:pageshadow="2"
     inkscape:zoom="1.4142136"
     inkscape:cx="387.88871"
     inkscape:cy="540.90018"
     inkscape:document-units="mm"
     inkscape:current-layer="layer1"
     inkscape:document-rotation="0"
     showgrid="false"
     showborder="false"
     inkscape:pagecheckerboard="true"
     inkscape:window-width="1920"
     inkscape:window-height="1001"
     inkscape:window-x="-9"
     inkscape:window-y="-9"
     inkscape:window-maximized="1" />
  <metadata
     id="metadata5">
    <rdf:RDF>
      <cc:Work
         rdf:about="">
        <dc:format>image/svg+xml</dc:format>
        <dc:type
           rdf:resource="http://purl.org/dc/dcmitype/StillImage" />
        <dc:title />
      </cc:Work>
    </rdf:RDF>
  </metadata>
  <g
     inkscape:label="Calque 1"
     inkscape:groupmode="layer"
     id="layer1">
    <rect
       style="opacity:1;fill:#ffffff;stroke-width:1;stroke-linecap:square;stroke-linejoin:round"
       id="rect865"
       width="70.532425"
       height="68.287361"
       x="67.79438"
       y="115.62929" />
    <circle
       style="opacity:0.5;fill:#003da5;fill-opacity:1;stroke-width:0.999996;stroke-linecap:square;stroke-linejoin:round"
       id="path833"
       cx="103.06059"
       cy="149.77296"
       r="32.487339" />
    <g
       id="g863"
       transform="translate(0.44496387,-1.07263)">
      <g
         id="g901"
         transform="matrix(0.68187512,0,0,0.68187512,30.302945,48.875468)"
         style="stroke-width:1.46654">
        <g
           aria-label="moq"
           id="text857"
           style="font-weight:bold;font-size:45.286px;line-height:1.25;font-family:'On the horizon';-inkscape-font-specification:'On the horizon Bold';letter-spacing:0px;fill:#314e52;fill-opacity:1;stroke-width:0.388021"
           transform="translate(-10.102788,1.3096207)">
          <path
             d="m 75.30914,135.31122 h 5.524892 l -0.67929,3.71345 4.347456,-3.71345 h 5.524891 l 2.536016,3.12473 3.62288,-3.12473 h 7.653335 l 4.30217,5.25318 -3.07945,17.29925 h -5.977751 l 2.807731,-15.89539 -1.26801,-1.58501 h -3.758735 l -2.807732,2.40016 -2.671874,15.08024 h -5.796607 l 2.807731,-15.98596 -1.177436,-1.49444 h -2.536015 l -5.072032,4.34746 -2.309586,13.13294 h -5.977752 z"
             style="font-style:italic;font-variant:normal;font-weight:bold;font-stretch:normal;font-size:45.286px;font-family:'Chakra Petch';-inkscape-font-specification:'Chakra Petch Bold Italic';fill:#314e52;fill-opacity:1;stroke-width:0.388021"
             id="path871" />
          <path
             d="m 110.76799,152.79162 2.30959,-13.13294 5.07203,-4.34746 h 12.90651 l 4.16631,5.07203 -2.30958,13.22351 -4.93618,4.25689 h -13.04236 z m 14.71795,0.0906 1.85673,-1.58501 1.63029,-9.41949 -1.31329,-1.58501 h -7.1099 l -1.85673,1.58501 -1.67558,9.41949 1.31329,1.58501 z"
             style="font-style:italic;font-variant:normal;font-weight:bold;font-stretch:normal;font-size:45.286px;font-family:'Chakra Petch';-inkscape-font-specification:'Chakra Petch Bold Italic';fill:#314e52;fill-opacity:1;stroke-width:0.388021"
             id="path873" />
          <path
             d="m 153.47265,154.64834 -3.75874,3.21531 h -7.97034 l -4.16631,-5.07203 2.30959,-13.13294 5.07203,-4.34746 h 12.68008 l 4.25688,5.25318 -4.70974,26.89988 h -5.97775 z m -3.71345,-1.85672 4.80031,-4.30217 1.17744,-6.52119 -1.26801,-1.58501 h -7.15519 l -1.81144,1.58501 -1.63029,9.23835 1.22272,1.58501 z"
             style="font-style:italic;font-variant:normal;font-weight:bold;font-stretch:normal;font-size:45.286px;font-family:'Chakra Petch';-inkscape-font-specification:'Chakra Petch Bold Italic';fill:#314e52;fill-opacity:1;stroke-width:0.388021"
             id="path875" />
        </g>
        <g
           aria-label="moq"
           id="text837"
           style="font-weight:bold;font-size:45.286px;line-height:1.25;font-family:'On the horizon';-inkscape-font-specification:'On the horizon Bold';letter-spacing:0px;fill:#ffffff;stroke-width:0.388021"
           transform="translate(-10.102788,1.3096207)">
          <path
             d="m 74.394398,133.66017 h 5.524892 l -0.67929,3.71345 4.347456,-3.71345 h 5.524892 l 2.536016,3.12474 3.62288,-3.12474 h 7.653336 l 4.30217,5.25318 -3.07945,17.29925 h -5.977752 l 2.807732,-15.89539 -1.268008,-1.58501 h -3.758738 l -2.807732,2.40016 -2.671874,15.08024 H 84.67432 l 2.807732,-15.98596 -1.177436,-1.49444 H 83.7686 l -5.072032,4.34746 -2.309586,13.13294 H 70.40923 Z"
             style="font-style:italic;font-variant:normal;font-weight:bold;font-stretch:normal;font-size:45.286px;font-family:'Chakra Petch';-inkscape-font-specification:'Chakra Petch Bold Italic';fill:#ffffff;stroke-width:0.388021"
             id="path878" />
          <path
             d="m 109.85325,151.14057 2.30959,-13.13294 5.07203,-4.34746 h 12.90651 l 4.16631,5.07203 -2.30958,13.22352 -4.93618,4.25688 h -13.04237 z m 14.71795,0.0906 1.85673,-1.58501 1.63029,-9.41949 -1.31329,-1.58501 h -7.1099 l -1.85673,1.58501 -1.67558,9.41949 1.31329,1.58501 z"
             style="font-style:italic;font-variant:normal;font-weight:bold;font-stretch:normal;font-size:45.286px;font-family:'Chakra Petch';-inkscape-font-specification:'Chakra Petch Bold Italic';fill:#ffffff;stroke-width:0.388021"
             id="path880" />
          <path
             d="m 152.55791,152.99729 -3.75874,3.21531 h -7.97034 l -4.16631,-5.07203 2.30959,-13.13294 5.07203,-4.34746 h 12.68008 l 4.25688,5.25318 -4.70974,26.89988 h -5.97775 z m -3.71346,-1.85672 4.80032,-4.30217 1.17744,-6.52119 -1.26801,-1.58501 h -7.15519 l -1.81144,1.58501 -1.6303,9.23835 1.22273,1.58501 z"
             style="font-style:italic;font-variant:normal;font-weight:bold;font-stretch:normal;font-size:45.286px;font-family:'Chakra Petch';-inkscape-font-specification:'Chakra Petch Bold Italic';fill:#ffffff;stroke-width:0.388021"
             id="path882" />
        </g>
      </g>
    </g>
  </g>
</svg>
